<svg xmlns="http://www.w3.org/2000/svg" width="18" height="930" viewBox="0 0 18 930">
    <g fill="none" fill-rule="evenodd">
        <path fill="#F5F5F5" d="M7 928V2a2 2 0 1 1 4 0v926a2 2 0 0 1-4 0z"/>
        <circle cx="9" cy="9" r="9" fill="#E30611" transform="matrix(0 -1 -1 0 18 50)"/>
        <circle cx="9" cy="9" r="9" fill="#FF6900" transform="matrix(0 -1 -1 0 18 727)"/>
        <circle cx="9" cy="9" r="9" fill="#FF6900" transform="matrix(0 -1 -1 0 18 352)"/>
        <circle cx="9" cy="9" r="9" fill="#BF4B50" transform="matrix(0 -1 -1 0 18 630)"/>
        <circle cx="9" cy="9" r="9" fill="#922766" transform="matrix(0 -1 -1 0 18 130)"/>
        <circle cx="9" cy="9" r="9" fill="#E30611" transform="matrix(0 -1 -1 0 18 454)"/>
    </g>
</svg>
