<svg xmlns="http://www.w3.org/2000/svg" width="54" height="55" viewBox="0 0 54 55">
    <g fill="#FF6900" fill-rule="evenodd">
        <path fill-rule="nonzero" d="M9.084 45.833H1.75a.916.916 0 0 0-.916.917v7.333c0 .506.41.917.916.917h7.334c.506 0 .916-.41.916-.916V46.75a.916.916 0 0 0-.916-.917zm-.917 7.334h-5.5v-5.5h5.5v5.5zM22.834 43.083H15.5a.916.916 0 0 0-.916.917v10.083c0 .506.41.917.916.917h7.334c.506 0 .916-.41.916-.916V44a.916.916 0 0 0-.916-.917zm-.917 10.084h-5.5v-8.25h5.5v8.25zM36.584 39.417H29.25a.916.916 0 0 0-.916.916v13.75c0 .506.41.917.916.917h7.334c.506 0 .916-.41.916-.916v-13.75a.916.916 0 0 0-.916-.917zm-.917 13.75h-5.5V41.25h5.5v11.917zM50.334 31.167H43a.916.916 0 0 0-.916.916v22c0 .506.41.917.916.917h7.334c.506 0 .916-.41.916-.916v-22a.916.916 0 0 0-.916-.917zm-.917 22h-5.5V33h5.5v20.167z"/>
        <path d="M30.435 20.207a.89.89 0 0 0-.016-.005l-6.417-1.834-.504 1.764 4.492 1.283L.33 39.567 1.337 41.1l27.206-17.854-1.508 4.901 1.751.54 2.257-7.334a.917.917 0 0 0-.608-1.146z"/>
        <path fill-rule="nonzero" d="M49.14 8.83a.917.917 0 0 0-.501-.25l-3.95-.605-1.776-3.781a.917.917 0 0 0-1.66 0L39.48 7.975l-3.95.604a.917.917 0 0 0-.518 1.546l2.885 2.957-.683 4.187a.916.916 0 0 0 1.348.95l3.522-1.947 3.523 1.947a.916.916 0 0 0 1.348-.95l-.683-4.187 2.885-2.957a.916.916 0 0 0-.016-1.296zm-4.504 3.303a.916.916 0 0 0-.249.788l.454 2.78-2.314-1.279a.916.916 0 0 0-.887 0l-2.313 1.28.453-2.78a.916.916 0 0 0-.248-.789l-1.963-2.011 2.67-.408a.915.915 0 0 0 .692-.517l1.153-2.456 1.153 2.456c.13.277.389.47.691.517l2.67.408-1.962 2.011z"/>
        <path d="M43.843 21.848c-.576.101-1.16.152-1.746.152h-.013a10.1 10.1 0 0 1-1.742-.15l-.315 1.806c.687.098 1.378.158 2.071.177.692 0 1.383-.06 2.064-.18l-.319-1.805zM44.116.173l-.31 1.806c1.158.2 2.272.6 3.29 1.186l.913-1.59A11.801 11.801 0 0 0 44.116.174zM39.98.184a11.838 11.838 0 0 0-3.883 1.426l.923 1.585a10.01 10.01 0 0 1 3.284-1.207L39.981.184zM49.81 18.394a10.118 10.118 0 0 1-2.68 2.253l.92 1.587a11.932 11.932 0 0 0 3.164-2.66l-1.403-1.18zM53.595 11.883l-1.428.034a10.06 10.06 0 0 1-.605 3.449l1.723.627A11.92 11.92 0 0 0 54 11.89l-.405-.007zM51.185 4.225L49.786 5.41a10.04 10.04 0 0 1 1.762 3.023l1.721-.634a11.856 11.856 0 0 0-2.084-3.573zM32.937 4.277a11.877 11.877 0 0 0-2.063 3.587l1.724.623c.4-1.105.99-2.132 1.746-3.034l-1.407-1.176zM34.368 18.409l-1.402 1.181a11.936 11.936 0 0 0 3.17 2.655l.917-1.588a10.103 10.103 0 0 1-2.685-2.248zM32 11.937l-1.833.004c.001 1.39.246 2.768.723 4.073l1.722-.63A10.044 10.044 0 0 1 32 11.937z"/>
    </g>
</svg>
