<svg xmlns="http://www.w3.org/2000/svg" width="55" height="55" viewBox="0 0 55 55">
    <g fill="#FF6900" fill-rule="evenodd">
        <path fill-rule="nonzero" d="M49.629 4.727h-5.12V3.223A3.226 3.226 0 0 0 41.285 0a3.226 3.226 0 0 0-3.223 3.223v1.504H20.016V3.223A3.226 3.226 0 0 0 16.794 0a3.226 3.226 0 0 0-3.223 3.223v1.543a1.072 1.072 0 0 0-.286-.04h-4.28a5.377 5.377 0 0 0-5.372 5.372v18.297a1.074 1.074 0 0 0 2.149 0V15.791h38.726a1.074 1.074 0 0 0 0-2.148H5.782v-3.545a3.226 3.226 0 0 1 3.222-3.223h4.28c.1 0 .196-.015.287-.04v1.383a3.226 3.226 0 0 0 3.223 3.222 3.226 3.226 0 0 0 3.222-3.222V6.875h18.047v1.343a3.226 3.226 0 0 0 3.223 3.222 3.226 3.226 0 0 0 3.222-3.222V6.875h5.12a3.226 3.226 0 0 1 3.224 3.223v40.82a1.936 1.936 0 0 1-1.935 1.934 1.936 1.936 0 0 1-1.934-1.935v-2.779c0-.593-.48-1.074-1.074-1.074H35.413a1.074 1.074 0 0 0 0 2.149h11.422v1.704c0 .7.177 1.358.488 1.935H4.082a1.936 1.936 0 0 1-1.934-1.934v-1.705h24.044a1.074 1.074 0 0 0 0-2.149H15.46a8.79 8.79 0 0 0 3.069-6.673c0-4.857-3.951-8.809-8.809-8.809-4.857 0-8.808 3.952-8.808 8.809a8.79 8.79 0 0 0 3.069 6.673H1.074c-.593 0-1.074.481-1.074 1.074v2.78A4.087 4.087 0 0 0 4.082 55h46.835A4.087 4.087 0 0 0 55 50.917v-40.82a5.377 5.377 0 0 0-5.371-5.37zm-31.761 3.49a1.075 1.075 0 0 1-2.149 0V3.224a1.075 1.075 0 0 1 2.149 0v4.995zm24.492 0a1.075 1.075 0 0 1-2.148 0V3.224a1.075 1.075 0 0 1 2.148 0v4.995zM3.06 40.392a6.668 6.668 0 0 1 6.66-6.66 6.668 6.668 0 0 1 6.66 6.66 6.668 6.668 0 0 1-6.66 6.66 6.668 6.668 0 0 1-6.66-6.66z"/>
        <path d="M50.307 13.957c-.2-.2-.477-.314-.76-.314-.282 0-.56.115-.76.314-.199.2-.314.477-.314.76 0 .282.115.56.315.76.2.2.477.314.76.314.282 0 .559-.115.759-.315.2-.2.314-.477.314-.76 0-.282-.114-.559-.314-.759zM32.081 47.378a1.08 1.08 0 0 0-.759-.313c-.282 0-.56.114-.76.313-.2.201-.314.477-.314.76 0 .283.115.56.315.76.2.2.477.314.76.314.282 0 .559-.114.758-.314.2-.2.315-.478.315-.76 0-.283-.115-.559-.315-.76z"/>
        <path fill-rule="nonzero" d="M24.304 32.656a4.087 4.087 0 0 0-4.082 4.082 4.087 4.087 0 0 0 4.082 4.082 4.087 4.087 0 0 0 4.082-4.082 4.087 4.087 0 0 0-4.082-4.082zm0 6.016a1.936 1.936 0 0 1-1.934-1.934c0-1.066.867-1.933 1.934-1.933 1.066 0 1.933.867 1.933 1.933a1.936 1.936 0 0 1-1.933 1.934zM34.33 32.656a4.087 4.087 0 0 0-4.082 4.082 4.087 4.087 0 0 0 4.082 4.082 4.087 4.087 0 0 0 4.082-4.082 4.087 4.087 0 0 0-4.082-4.082zm0 6.016a1.936 1.936 0 0 1-1.934-1.934c0-1.066.868-1.933 1.934-1.933 1.066 0 1.933.867 1.933 1.933a1.936 1.936 0 0 1-1.933 1.934zM44.356 32.656a4.087 4.087 0 0 0-4.082 4.082 4.087 4.087 0 0 0 4.082 4.082 4.087 4.087 0 0 0 4.082-4.082 4.087 4.087 0 0 0-4.082-4.082zm0 6.016a1.936 1.936 0 0 1-1.934-1.934c0-1.066.868-1.933 1.934-1.933 1.066 0 1.933.867 1.933 1.933a1.936 1.936 0 0 1-1.933 1.934zM14.278 21.484a4.087 4.087 0 0 0-4.082 4.082 4.087 4.087 0 0 0 4.082 4.082 4.087 4.087 0 0 0 4.082-4.082 4.087 4.087 0 0 0-4.082-4.082zm0 6.016a1.936 1.936 0 0 1-1.934-1.934c0-1.066.867-1.933 1.934-1.933 1.066 0 1.933.867 1.933 1.933a1.936 1.936 0 0 1-1.933 1.934zM34.33 21.484a4.087 4.087 0 0 0-4.082 4.082 4.087 4.087 0 0 0 4.082 4.082 4.087 4.087 0 0 0 4.082-4.082 4.087 4.087 0 0 0-4.082-4.082zm0 6.016a1.936 1.936 0 0 1-1.934-1.934c0-1.066.868-1.933 1.934-1.933 1.066 0 1.933.867 1.933 1.933A1.936 1.936 0 0 1 34.33 27.5zM44.356 21.484a4.087 4.087 0 0 0-4.082 4.082 4.087 4.087 0 0 0 4.082 4.082 4.087 4.087 0 0 0 4.082-4.082 4.087 4.087 0 0 0-4.082-4.082zm0 6.016a1.936 1.936 0 0 1-1.934-1.934c0-1.066.868-1.933 1.934-1.933 1.066 0 1.933.867 1.933 1.933a1.936 1.936 0 0 1-1.933 1.934zM24.304 21.484a4.087 4.087 0 0 0-4.082 4.082 4.087 4.087 0 0 0 4.082 4.082 4.087 4.087 0 0 0 4.082-4.082 4.087 4.087 0 0 0-4.082-4.082zm0 6.016a1.936 1.936 0 0 1-1.934-1.934c0-1.066.867-1.933 1.934-1.933 1.066 0 1.933.867 1.933 1.933a1.936 1.936 0 0 1-1.933 1.934z"/>
        <path d="M13.546 37.773c-.42-.42-1.1-.42-1.519 0L8.53 41.27l-1.196-1.195a1.074 1.074 0 0 0-1.519 1.519l1.955 1.955a1.075 1.075 0 0 0 1.52 0l4.257-4.258c.42-.42.42-1.1 0-1.52z"/>
    </g>
</svg>
