<svg xmlns="http://www.w3.org/2000/svg" width="55" height="55" viewBox="0 0 55 55">
    <g fill="#FF6900" fill-rule="evenodd">
        <path fill-rule="nonzero" d="M33.487 39.028a3.2 3.2 0 0 0-.947-2.064l-4.072-4.073a4.27 4.27 0 0 0 1.735-1.05l.104-.104c1.794-1.795 1.65-4.858-.321-6.83-.938-.938-2.152-1.497-3.417-1.573-1.315-.08-2.526.365-3.413 1.252l-.104.104a4.267 4.267 0 0 0-1.05 1.735l-4.073-4.073c-1.2-1.2-3.08-1.272-4.191-.161l-3.692 3.691a1.91 1.91 0 0 0-.502 1.756c.149.705.64 1.28 1.314 1.541.426.165.812.418 1.147.753l.117.117c.567.567.904 1.288.949 2.03.042.693-.181 1.321-.628 1.768-.447.447-1.075.67-1.768.628-.742-.045-1.463-.382-2.03-.949l-.117-.117a3.298 3.298 0 0 1-.753-1.147 2.117 2.117 0 0 0-1.541-1.314 1.91 1.91 0 0 0-1.756.502L.79 35.138c-1.111 1.11-1.039 2.991.161 4.191l4.073 4.073a4.27 4.27 0 0 0-1.736 1.05l-.103.104c-1.795 1.795-1.65 4.858.32 6.83 1.048 1.047 2.402 1.578 3.71 1.578 1.157 0 2.279-.415 3.12-1.257l.104-.104a4.268 4.268 0 0 0 1.05-1.735l4.073 4.073a3.201 3.201 0 0 0 2.24.952c.741 0 1.445-.283 1.952-.79l3.511-3.512a5.437 5.437 0 0 0 1.194 1.783l.117.117c1.972 1.971 5.036 2.115 6.83.32 1.795-1.794 1.65-4.858-.32-6.83l-.118-.117a5.433 5.433 0 0 0-1.782-1.194l3.515-3.515a2.765 2.765 0 0 0 .785-2.127zm-2.301.611l-3.691 3.691a1.91 1.91 0 0 0-.503 1.756c.15.705.64 1.281 1.315 1.542.425.164.81.417 1.146.753l.117.117c1.136 1.135 1.28 2.839.321 3.797-.958.959-2.662.815-3.798-.32l-.116-.118a3.298 3.298 0 0 1-.754-1.146 2.117 2.117 0 0 0-1.54-1.315 1.91 1.91 0 0 0-1.757.503l-3.687 3.687a.613.613 0 0 1-.482.161 1.075 1.075 0 0 1-.677-.322l-1.634-1.634 3.558-3.558a1.072 1.072 0 0 0-1.516-1.517l-3.558 3.558-1.11-1.11a2.1 2.1 0 0 0-1.48-.625c-.187 0-.374.026-.556.08a1.823 1.823 0 0 0-1.282 1.388c-.09.423-.284.786-.578 1.08l-.104.104c-.958.958-2.662.814-3.797-.321-1.136-1.136-1.28-2.84-.321-3.798l.103-.103a2.125 2.125 0 0 1 1.08-.579 1.823 1.823 0 0 0 1.389-1.282c.21-.709 0-1.488-.546-2.035l-4.26-4.26a1.075 1.075 0 0 1-.322-.678.615.615 0 0 1 .16-.481l3.512-3.511a5.437 5.437 0 0 0 1.194 1.782l.117.117c1.971 1.972 5.035 2.115 6.83.321 1.794-1.795 1.65-4.858-.321-6.83l-.117-.117a5.433 5.433 0 0 0-1.783-1.194l3.516-3.515c.27-.27.801-.197 1.159.161l4.26 4.26c.546.547 1.326.756 2.035.546a1.823 1.823 0 0 0 1.282-1.388c.09-.423.285-.787.578-1.08l.104-.104c.447-.447 1.075-.67 1.768-.628.742.045 1.463.382 2.03.949 1.135 1.136 1.28 2.84.32 3.798l-.103.103a2.125 2.125 0 0 1-1.08.579 1.823 1.823 0 0 0-1.388 1.281c-.21.71-.001 1.49.545 2.036l4.26 4.26c.19.19.309.437.323.677a.615.615 0 0 1-.161.482z"/>
        <path d="M21.754 42.966a1.08 1.08 0 0 0-.758-.314 1.08 1.08 0 0 0-.758.314c-.2.2-.314.476-.314.758 0 .282.115.559.314.758.2.2.475.315.758.315.282 0 .559-.115.758-.315.2-.199.314-.476.314-.758a1.08 1.08 0 0 0-.314-.758zM44.521 13.615a1.08 1.08 0 0 0-.758-.314 1.08 1.08 0 0 0-.758.314c-.199.2-.314.476-.314.758 0 .282.115.559.314.758.2.2.476.315.758.315.282 0 .559-.115.758-.315.2-.199.315-.476.315-.758a1.08 1.08 0 0 0-.315-.758z"/>
        <path fill-rule="nonzero" d="M52.694 24.282a5.392 5.392 0 0 0-2.015-1.275l3.542-3.542c.54-.54.822-1.304.774-2.096a3.154 3.154 0 0 0-.933-2.035l-3.934-3.935a4.21 4.21 0 0 0 1.475-.953l.102-.102c1.768-1.768 1.626-4.788-.316-6.73-1.943-1.943-4.962-2.085-6.73-.317l-.103.102c-.416.417-.74.921-.953 1.476L39.664.935C38.482-.246 36.63-.317 35.534.778l-3.542 3.542a5.392 5.392 0 0 0-1.275-2.015l-.115-.116C28.66.246 25.64.104 23.872 1.872c-1.768 1.769-1.627 4.788.316 6.73l.116.116a5.393 5.393 0 0 0 2.014 1.275l-3.541 3.542c-1.095 1.095-1.024 2.948.16 4.13l4.2 4.2c.54.538 1.308.744 2.006.537a1.796 1.796 0 0 0 1.263-1.368c.089-.417.28-.775.57-1.064l.102-.102c.44-.44 1.06-.66 1.742-.62.731.045 1.441.377 2 .936.56.559.891 1.27.935 2 .042.683-.178 1.302-.619 1.742l-.102.102c-.289.29-.647.482-1.064.57a1.796 1.796 0 0 0-1.368 1.263c-.207.699 0 1.467.537 2.006l4.194 4.197a3.141 3.141 0 0 0 2.212.936c.709 0 1.4-.257 1.919-.777l3.541-3.542a5.393 5.393 0 0 0 1.275 2.015l.116.116c1.943 1.942 4.961 2.084 6.73.316 1.768-1.769 1.626-4.788-.316-6.73l-.116-.116zm-.96 5.452c-.951.952-2.643.81-3.77-.318l-.117-.116a3.28 3.28 0 0 1-.804-1.297 2.124 2.124 0 0 0-1.514-1.4 1.894 1.894 0 0 0-1.798.487l-3.749 3.748a.61.61 0 0 1-.478.16 1.067 1.067 0 0 1-.673-.32l-4.04-4.044a4.24 4.24 0 0 0 1.723-1.042l.103-.103c.88-.88 1.322-2.085 1.243-3.39-.076-1.256-.63-2.461-1.562-3.392-.931-.932-2.136-1.486-3.393-1.562-1.305-.079-2.508.362-3.389 1.243l-.103.103c-.48.48-.836 1.07-1.042 1.723l-4.049-4.045a1.068 1.068 0 0 1-.32-.673.611.611 0 0 1 .16-.478l3.748-3.748a1.894 1.894 0 0 0 .487-1.799 2.124 2.124 0 0 0-1.4-1.514 3.283 3.283 0 0 1-1.296-.804l-.117-.116c-1.127-1.128-1.27-2.82-.318-3.771.951-.952 2.643-.81 3.77.318l.117.117c.37.37.649.819.804 1.296.225.693.805 1.23 1.514 1.4a1.894 1.894 0 0 0 1.799-.487l3.748-3.748c.269-.268.796-.195 1.151.16l4.137 4.137c.524.524 1.277.738 1.964.557a1.815 1.815 0 0 0 1.3-1.279c.101-.361.283-.675.54-.932l.103-.103c.952-.952 2.644-.81 3.771.319 1.128 1.127 1.27 2.819.319 3.77l-.103.103c-.258.258-.571.44-.932.54a1.815 1.815 0 0 0-1.28 1.3c-.18.688.034 1.44.558 1.965l4.132 4.132c.19.19.306.435.32.673a.61.61 0 0 1-.16.478l-1.708 1.709-3.528-3.529a1.065 1.065 0 0 0-1.506 1.506l3.528 3.528-.534.535a1.894 1.894 0 0 0-.487 1.798c.17.709.707 1.29 1.4 1.514.477.155.926.433 1.296.804l.117.116c1.127 1.128 1.27 2.82.318 3.771z"/>
    </g>
</svg>
