<svg xmlns="http://www.w3.org/2000/svg" width="55" height="55" viewBox="0 0 55 55">
    <g fill="#FF6900" fill-rule="evenodd">
        <path fill-rule="nonzero" d="M33.102 49.812l-3.001-.857v-.236a4.431 4.431 0 0 0 1.77-3.523v-1.587c0-2.38-1.771-4.397-4.033-4.593a4.448 4.448 0 0 0-3.384 1.145 4.441 4.441 0 0 0-1.436 3.264v1.77c0 1.385.668 2.692 1.77 3.524v.236l-3 .857a4.425 4.425 0 0 0-3.196 4.237v.885h17.706v-.885a4.425 4.425 0 0 0-3.196-4.237zm-12.585 3.352a2.645 2.645 0 0 1 1.758-1.649l4.284-1.225v-2.553l-.44-.256a2.627 2.627 0 0 1-1.33-2.285v-1.77c0-.743.314-1.457.862-1.959a2.631 2.631 0 0 1 2.034-.687c1.354.118 2.416 1.36 2.416 2.829v1.587c0 .946-.498 1.8-1.331 2.285l-.44.256v2.553l4.285 1.225c.83.238 1.476.866 1.757 1.649H20.517zM51.693 49.812l-3-.857v-.236a4.431 4.431 0 0 0 1.77-3.523v-1.587c0-2.38-1.772-4.397-4.034-4.593a4.45 4.45 0 0 0-3.383 1.146 4.436 4.436 0 0 0-1.436 3.263v1.77c0 1.385.667 2.692 1.77 3.524v.236l-3.001.857a4.425 4.425 0 0 0-3.196 4.237v.885H54.89v-.885a4.425 4.425 0 0 0-3.196-4.237zm-12.585 3.352a2.645 2.645 0 0 1 1.758-1.649l4.285-1.225v-2.553l-.44-.256a2.627 2.627 0 0 1-1.33-2.285v-1.77c0-.743.314-1.457.862-1.959a2.63 2.63 0 0 1 2.034-.687c1.353.118 2.415 1.36 2.415 2.83v1.586c0 .946-.497 1.8-1.33 2.285l-.44.256v2.553l4.284 1.225c.83.238 1.476.866 1.758 1.649H39.108zM14.51 49.812l-3-.857v-.236a4.431 4.431 0 0 0 1.77-3.523v-1.587c0-2.38-1.772-4.397-4.034-4.593a4.449 4.449 0 0 0-3.383 1.146 4.436 4.436 0 0 0-1.436 3.263v1.77c0 1.385.667 2.692 1.77 3.524v.236l-3.001.857A4.425 4.425 0 0 0 0 54.05v.885h17.706v-.885a4.425 4.425 0 0 0-3.196-4.237zM1.925 53.164a2.645 2.645 0 0 1 1.758-1.649l4.285-1.225v-2.553l-.44-.256a2.627 2.627 0 0 1-1.33-2.285v-1.77c0-.743.313-1.457.862-1.959a2.631 2.631 0 0 1 2.034-.687c1.353.118 2.415 1.36 2.415 2.83v1.586c0 .946-.498 1.8-1.33 2.285l-.44.256v2.553l4.284 1.225c.83.238 1.476.866 1.758 1.649H1.925zM24.789 32.463l8.176-4.088-8.176-4.088v8.176zm1.77-5.311l2.447 1.223-2.447 1.224v-2.447z"/>
        <path fill-rule="nonzero" d="M53.119 3.586H34.762L29.537.601a4.286 4.286 0 0 0-4.186 0l-5.224 2.985H1.771C.794 3.586 0 4.381 0 5.356v2.657c0 .976.794 1.77 1.77 1.77v27.445h1.771V9.783h7.956v-1.77H1.771V5.357h15.258l-2.535 1.448a2.415 2.415 0 0 0-1.214 2.093c0 .863.465 1.666 1.214 2.093l2.327 1.33v7.643l.354.266c.094.07 1.5 1.098 4.02 1.896a8.818 8.818 0 0 0-2.603 6.249c0 4.882 3.97 8.853 8.853 8.853 4.881 0 8.853-3.971 8.853-8.853a8.814 8.814 0 0 0-2.603-6.25c2.52-.797 3.926-1.824 4.02-1.895l.353-.266v-7.643l2.327-1.33c.48-.273.824-.71 1.024-1.208h1.076c.488 0 .885.397.885.886v5.312h-.667l-1.954 6.84-.035.242a3.545 3.545 0 0 0 3.542 3.541 3.545 3.545 0 0 0 3.54-3.54l-1.988-7.083h-.667v-5.312a2.66 2.66 0 0 0-2.656-2.656h-1.076a2.396 2.396 0 0 0-1.024-1.208L37.86 5.357H53.12v2.656h-6.197v1.77h4.426v27.445h1.77V9.783c.977 0 1.771-.794 1.771-1.77V5.357c0-.976-.794-1.77-1.77-1.77zm-7.086 19.589a1.772 1.772 0 0 1-3.535 0l1.55-5.424h.435l1.55 5.424zm-11.506 5.2a7.09 7.09 0 0 1-7.082 7.082 7.09 7.09 0 0 1-7.083-7.082 7.058 7.058 0 0 1 2.92-5.715c1.223.242 2.61.403 4.163.403a21.4 21.4 0 0 0 4.162-.402 7.057 7.057 0 0 1 2.92 5.714zm1.77-9.33c-1.01.616-4.131 2.247-8.852 2.247-4.723 0-7.845-1.632-8.853-2.247v-5.712l6.76 3.862a4.217 4.217 0 0 0 4.185 0l6.76-3.862v5.712zm2.643-9.262L28.66 15.66a2.488 2.488 0 0 1-2.43 0L15.372 9.454a.645.645 0 0 1-.322-.556c0-.229.124-.442.322-.556L26.23 2.138a2.454 2.454 0 0 1 2.43 0l10.28 5.875H27.445v1.77H38.94z"/>
        <path d="M5.312 11.554h6.197v1.77H5.312zM5.312 15.095h9.738v1.77H5.312zM5.312 18.637h9.738v1.77H5.312zM5.312 22.178h9.738v1.77H5.312zM38.068 35.457h11.51v1.771h-11.51zM38.068 31.916h11.51v1.77h-11.51zM38.068 28.375h11.51v1.77h-11.51z"/>
    </g>
</svg>
