<svg xmlns="http://www.w3.org/2000/svg" width="56" height="56" viewBox="0 0 56 56">
    <g fill="#FF6900" fill-rule="evenodd">
        <path fill-rule="nonzero" d="M42.824 24.175c0-1.77-1.426-3.21-3.179-3.21h-5.84c1.419-1.612 2.346-3.447 2.525-5.094a3.565 3.565 0 0 0-.843-2.738 3.033 3.033 0 0 0-2.273-1.054h-.03c-.847 0-1.642.329-2.241.93-.6.6-.932 1.4-.936 2.253-.03.187-.356.832-1.153 1.597-.651.626-1.778 1.488-3.44 2.033-.652.214-1.248.608-1.771 1.17-.275.296-.686.703-1.195 1.113a1.764 1.764 0 0 0-.835-.21h-5.547c-.988 0-1.791.811-1.791 1.81V37.72c0 .998.803 1.81 1.79 1.81h5.548a1.79 1.79 0 0 0 1.566-.935h14.155c1.498 0 2.716-1.23 2.716-2.744 0-.508-.138-.985-.378-1.394a2.75 2.75 0 0 0 1.302-2.342c0-.509-.137-.985-.377-1.394a2.75 2.75 0 0 0 1.302-2.342c0-.573-.175-1.105-.473-1.546a3.22 3.22 0 0 0 1.398-2.658zm-3.179 1.46h-.462a.871.871 0 0 0-.867.875c0 .484.388.876.867.876.542 0 .983.445.983.993 0 .547-.441.992-.983.992h-.924a.871.871 0 0 0-.867.876c0 .483.388.876.867.876.541 0 .982.445.982.992 0 .547-.44.993-.982.993h-.925a.871.871 0 0 0-.867.875c0 .484.388.876.867.876.542 0 .983.445.983.993 0 .547-.441.992-.983.992h-13.93V28.38a.871.871 0 0 0-.867-.876.871.871 0 0 0-.866.876v9.34a.058.058 0 0 1-.058.059h-5.547a.058.058 0 0 1-.058-.058V22.774c0-.032.026-.059.058-.059h5.547c.032 0 .058.027.058.059v1.868c0 .484.388.876.866.876a.871.871 0 0 0 .867-.876v-1.868c0-.043-.003-.084-.006-.126.65-.508 1.17-1.022 1.508-1.387.321-.345.672-.582 1.043-.703 2.04-.67 3.413-1.747 4.205-2.533.993-.985 1.586-2.012 1.586-2.747a1.44 1.44 0 0 1 1.458-1.448c.486.005.808.256.992.466.316.36.472.877.417 1.384-.19 1.74-1.567 3.89-3.509 5.48a.882.882 0 0 0-.271.972c.122.35.45.583.817.583h8.001c.797 0 1.445.655 1.445 1.46 0 .805-.648 1.46-1.445 1.46z"/>
        <path d="M18.667 34.04c-.604 0-1.098.494-1.098 1.097s.494 1.098 1.098 1.098c.603 0 1.098-.495 1.098-1.098 0-.603-.495-1.098-1.098-1.098z"/>
        <path fill-rule="nonzero" d="M54.437 28l1.506-3.986a.876.876 0 0 0-.136-.858l-2.664-3.326.2-4.256a.877.877 0 0 0-.393-.774l-3.562-2.34-1.124-4.11a.877.877 0 0 0-.614-.614l-4.11-1.124L41.2 3.05a.878.878 0 0 0-.774-.394l-4.256.2L32.844.194a.877.877 0 0 0-.858-.136L28 1.563 24.014.057a.876.876 0 0 0-.858.136L19.83 2.857l-4.256-.2a.875.875 0 0 0-.774.394l-2.34 3.561-4.11 1.124a.877.877 0 0 0-.614.615l-1.124 4.11L3.051 14.8a.877.877 0 0 0-.395.774l.201 4.256-2.664 3.326a.877.877 0 0 0-.136.858L1.563 28 .057 31.986a.876.876 0 0 0 .136.858l2.664 3.326-.2 4.256a.877.877 0 0 0 .393.774l3.562 2.34 1.124 4.11a.877.877 0 0 0 .614.614l4.11 1.124 2.34 3.561a.88.88 0 0 0 .774.395l4.256-.2 3.326 2.663a.876.876 0 0 0 .858.136L28 54.437l3.986 1.506a.877.877 0 0 0 .858-.136l3.326-2.664 4.256.2a.878.878 0 0 0 .774-.394l2.34-3.561 4.11-1.124a.877.877 0 0 0 .614-.614l1.124-4.11 3.562-2.34c.259-.17.409-.465.394-.774l-.2-4.256 2.663-3.326a.877.877 0 0 0 .136-.858L54.437 28zm-1.758.31l1.447 3.828-2.559 3.194a.877.877 0 0 0-.191.59l.193 4.087-3.42 2.246a.877.877 0 0 0-.365.502l-1.08 3.947-3.947 1.08a.877.877 0 0 0-.502.364l-2.246 3.42-4.088-.192a.877.877 0 0 0-.59.191l-3.193 2.559-3.828-1.447a.877.877 0 0 0-.62 0l-3.828 1.447-3.194-2.559a.878.878 0 0 0-.59-.191l-4.087.193-2.246-3.42a.877.877 0 0 0-.502-.365l-3.947-1.08-1.08-3.947a.877.877 0 0 0-.364-.502l-3.42-2.246.192-4.088a.876.876 0 0 0-.191-.59l-2.559-3.193 1.447-3.828a.877.877 0 0 0 0-.62l-1.447-3.828 2.559-3.194a.877.877 0 0 0 .191-.59l-.193-4.087 3.42-2.247a.877.877 0 0 0 .365-.501l1.08-3.947 3.947-1.08a.877.877 0 0 0 .502-.364l2.246-3.42 4.088.192a.877.877 0 0 0 .59-.191l3.193-2.56 3.828 1.448c.2.075.42.075.62 0l3.828-1.447 3.194 2.559a.876.876 0 0 0 .59.191l4.087-.193 2.246 3.42a.877.877 0 0 0 .502.365l3.947 1.08 1.08 3.947a.877.877 0 0 0 .364.501l3.42 2.247-.192 4.088a.876.876 0 0 0 .191.59l2.559 3.193-1.447 3.828a.878.878 0 0 0 0 .62z"/>
        <path d="M44.772 12.7a24.51 24.51 0 0 0-1.472-1.472.939.939 0 1 0-1.27 1.383 22.783 22.783 0 0 1 1.359 1.36.937.937 0 0 0 1.327.056.939.939 0 0 0 .056-1.326zM40.218 9.003C35.95 6.292 30.81 5.087 25.748 5.61a22.677 22.677 0 0 0-13.638 6.478 22.433 22.433 0 0 0-6.601 15.016 22.415 22.415 0 0 0 5.271 15.405.884.884 0 0 0 1.248.107.88.88 0 0 0 .107-1.243 20.658 20.658 0 0 1-4.857-14.198 20.675 20.675 0 0 1 6.083-13.839 20.898 20.898 0 0 1 12.57-5.971c4.667-.482 9.403.628 13.336 3.127a.887.887 0 0 0 1.222-.27.88.88 0 0 0-.271-1.219zM46.997 15.782a.88.88 0 0 0-1.219-.27.886.886 0 0 0-.27 1.221c2.498 3.933 3.609 8.67 3.127 13.336a20.9 20.9 0 0 1-5.971 12.57 20.676 20.676 0 0 1-13.84 6.083 20.655 20.655 0 0 1-14.197-4.857.88.88 0 0 0-1.243.108.887.887 0 0 0 .107 1.247 22.404 22.404 0 0 0 15.406 5.271 22.433 22.433 0 0 0 15.015-6.6 22.675 22.675 0 0 0 6.478-13.64c.523-5.062-.682-10.2-3.393-14.469z"/>
    </g>
</svg>
