<svg xmlns="http://www.w3.org/2000/svg" width="55" height="50" viewBox="0 0 55 50">
    <g fill="#FF6900" fill-rule="evenodd">
        <path d="M34.584 12.175a.68.68 0 0 0 .966 0 .683.683 0 0 0 0-.966l-.01-.009a.683.683 0 0 0-.965.966l.01.009z"/>
        <path fill-rule="nonzero" d="M50.941 22.862l3.744-3.655c.308-.3.4-.751.233-1.143a1.075 1.075 0 0 0-.992-.647h-7.762c-1.014-4.055-3.143-7.75-6.187-10.72C35.554 2.377 29.673 0 23.417 0 17.164 0 11.283 2.378 6.86 6.696S0 16.756 0 22.862C0 28.97 2.436 34.71 6.859 39.028a23.507 23.507 0 0 0 4.305 3.325l-3.236 5.582c-.189.324-.186.722.006 1.044.193.323.546.521.928.521h5.533c.387 0 .744-.203.934-.532l2.289-3.947a24.11 24.11 0 0 0 5.8.704c1.983 0 3.927-.24 5.8-.704l2.288 3.947c.191.329.548.532.935.532h5.533c.382 0 .735-.198.928-.52.192-.323.195-.72.006-1.045l-3.236-5.582c1.545-.93 2.99-2.04 4.305-3.325 3.043-2.97 5.173-6.666 6.187-10.72h7.762c.434 0 .826-.256.992-.647a1.03 1.03 0 0 0-.233-1.143l-3.744-3.656zm-1.964-1.048H41.48l2.355-2.3h7.497l-2.355 2.3zM13.768 47.403h-3.063l2.338-4.033c.802.388 1.626.73 2.469 1.025l-1.744 3.008zm22.363 0h-3.063l-1.744-3.008a23.403 23.403 0 0 0 2.47-1.025l2.337 4.033zm2.327-9.858a21.326 21.326 0 0 1-4.71 3.478l-.063.03-.038.024a21.275 21.275 0 0 1-4.118 1.684c-.057.01-.112.027-.167.047a21.841 21.841 0 0 1-5.944.82c-2.04 0-4.037-.281-5.944-.82a1.086 1.086 0 0 0-.167-.047 21.273 21.273 0 0 1-4.118-1.684l-.038-.023c-.02-.011-.042-.02-.063-.03a21.323 21.323 0 0 1-4.71-3.479c-4.017-3.922-6.23-9.136-6.23-14.683 0-5.546 2.213-10.76 6.23-14.683 4.017-3.922 9.359-6.082 15.04-6.082 5.681 0 11.022 2.16 15.04 6.082 2.64 2.577 4.522 5.752 5.489 9.238h-.556c-.285 0-.559.11-.76.307l-2.851 2.783a15.897 15.897 0 0 0-1.873-5.446 1.088 1.088 0 0 0-1.46-.412c-.519.28-.707.918-.42 1.425a13.683 13.683 0 0 1 1.735 5.74h-4.737a9.278 9.278 0 0 0-2.77-5.626c-1.827-1.782-4.255-2.764-6.837-2.764s-5.01.982-6.836 2.764c-1.826 1.783-2.832 4.153-2.832 6.674 0 2.521 1.006 4.892 2.832 6.674 1.826 1.783 4.254 2.765 6.836 2.765 2.582 0 5.01-.982 6.836-2.765a9.278 9.278 0 0 0 2.771-5.625h4.732a13.927 13.927 0 0 1-4.16 8.888c-2.72 2.655-6.334 4.116-10.18 4.116-3.844 0-7.459-1.461-10.177-4.116-2.72-2.654-4.217-6.183-4.217-9.937 0-3.753 1.498-7.282 4.217-9.937 4.51-4.402 11.554-5.378 17.13-2.372.52.28 1.174.096 1.46-.411a1.036 1.036 0 0 0-.42-1.425c-3.078-1.659-6.701-2.32-10.203-1.861-3.618.474-6.899 2.06-9.487 4.586-3.124 3.05-4.845 7.106-4.845 11.42s1.72 8.37 4.845 11.42c3.125 3.05 7.28 4.73 11.698 4.73 4.419 0 8.573-1.68 11.698-4.73 2.538-2.478 4.15-5.608 4.668-9.06L42.63 28c.201.196.475.307.76.307h.555c-.966 3.485-2.85 6.661-5.488 9.237zm-11.532-16.66a1.088 1.088 0 0 0-1.467-.384l-2.578 1.453a1.044 1.044 0 0 0-.537.908c0 .375.204.721.537.908l2.578 1.454a1.09 1.09 0 0 0 1.467-.384c.175-.295.185-.638.06-.929h3.875a7.223 7.223 0 0 1-2.126 4.142 7.563 7.563 0 0 1-5.317 2.15 7.563 7.563 0 0 1-5.317-2.15 7.206 7.206 0 0 1-2.203-5.19c0-1.962.783-3.805 2.203-5.192a7.563 7.563 0 0 1 5.317-2.15c2.009 0 3.897.764 5.317 2.15a7.223 7.223 0 0 1 2.126 4.143h-3.875a1.024 1.024 0 0 0-.06-.93zm16.91 5.325l-2.356-2.299h7.497l2.355 2.3h-7.497z"/>
    </g>
</svg>
