<svg xmlns="http://www.w3.org/2000/svg" width="210" height="32" viewBox="0 0 210 32">
    <g fill="none" fill-rule="evenodd">
        <path fill="#FF6900" d="M43.67 21.82h1.322c.175 0 .33-.01.464-.03.135-.02.257-.053.368-.1.111-.046.216-.111.314-.196.099-.084.192-.188.28-.314a3.64 3.64 0 0 0 .266-.456c.09-.18.186-.392.29-.64-.448-.92-.886-1.85-1.314-2.79a141.554 141.554 0 0 1-2.45-5.731c-.387-.968-.762-1.941-1.124-2.919h3.018c.144.423.294.85.452 1.284a83.014 83.014 0 0 0 .996 2.605 84.182 84.182 0 0 0 1.069 2.548c.18.414.36.82.54 1.217l.263.795h.021l.178-.682c.15-.423.3-.848.448-1.276a99.778 99.778 0 0 0 .867-2.608 91.857 91.857 0 0 0 .795-2.613c.126-.431.244-.855.355-1.27h2.836a139.754 139.754 0 0 1-1.783 5.462c-.32.91-.65 1.823-.994 2.74-.344.916-.702 1.835-1.074 2.755a29.972 29.972 0 0 1-.725 1.679c-.222.467-.442.869-.658 1.205a4.982 4.982 0 0 1-.666.844c-.228.225-.47.402-.728.531a3.133 3.133 0 0 1-.84.277 5.84 5.84 0 0 1-1.045.083c-.14 0-.285-.005-.435-.016a9.954 9.954 0 0 1-1.306-.183V21.82zM61.271 24v-4.818h-4.07V24h-2.638V12.715H57.2v4.313h4.071v-4.313h2.643V24h-2.643zm12.257 0v-4.904l.086-2.358-1.095 1.848L68.909 24h-2.266V12.715h2.637v4.904l-.086 2.331 1.1-1.847 3.589-5.388h2.261V24h-2.616zm5.366-11.285a32.51 32.51 0 0 1 1.936-.137c.654-.026 1.328-.04 2.023-.04.533 0 1.018.029 1.455.086a6.27 6.27 0 0 1 1.163.255c.338.113.631.252.878.416.247.165.45.355.61.57.16.215.277.454.354.717.077.263.116.55.116.862 0 .3-.044.584-.132.848a2.46 2.46 0 0 1-.934 1.26c-.217.152-.456.27-.717.352.34.054.653.155.94.303.286.149.534.34.743.572.21.233.371.502.484.809.113.306.169.64.169 1.001 0 .401-.053.77-.159 1.107-.105.336-.26.638-.461.905a3.112 3.112 0 0 1-.739.695c-.29.197-.621.361-.994.492-.372.13-.781.228-1.227.293-.446.064-.925.096-1.437.096a35.9 35.9 0 0 1-1.957-.053l-.846-.046c-.237-.013-.66-.039-1.268-.078V12.715zm4.028 4.641c.312 0 .582-.037.811-.11.23-.074.417-.18.562-.317.145-.138.252-.3.322-.489.07-.188.105-.396.105-.626 0-.243-.04-.458-.121-.644a1.14 1.14 0 0 0-.373-.467 1.784 1.784 0 0 0-.64-.285 3.798 3.798 0 0 0-.913-.097 14.948 14.948 0 0 0-.891.027c-.122.007-.22.013-.296.016v2.992h1.434zm-1.434 1.627v3.304a11.573 11.573 0 0 0 .854.053 35.1 35.1 0 0 0 .865.011c.315 0 .597-.036.846-.107.249-.072.461-.178.636-.32.176-.141.31-.316.403-.524.093-.207.14-.447.14-.72a1.81 1.81 0 0 0-.134-.716 1.327 1.327 0 0 0-.414-.532 1.975 1.975 0 0 0-.712-.333 4.022 4.022 0 0 0-1.028-.116h-1.456zm17.16 4.69c-.303.092-.614.177-.931.252a13.262 13.262 0 0 1-2.02.317c-.352.028-.71.043-1.071.043-.86 0-1.608-.12-2.245-.358a3.86 3.86 0 0 1-1.587-1.08c-.421-.48-.735-1.087-.943-1.817-.208-.73-.311-1.588-.311-2.573 0-.935.109-1.776.327-2.524.219-.749.54-1.386.967-1.912a4.145 4.145 0 0 1 1.584-1.204c.63-.275 1.35-.413 2.16-.413.512 0 .977.054 1.396.16.42.108.792.265 1.12.47.328.207.61.46.846.76.236.302.431.645.585 1.03.154.384.269.81.344 1.278a9.566 9.566 0 0 1 .11 1.724 313.277 313.277 0 0 0-.016.773l-.003.32h-6.713c0 .35.021.674.064.97.043.295.11.563.201.805.092.242.21.456.355.642s.32.343.526.47c.206.127.444.224.715.29.27.066.573.1.91.1a11.96 11.96 0 0 0 1.735-.127c.276-.041.547-.091.814-.15.266-.06.54-.128.819-.207l.263 1.96zm-2.266-6.516c.018-.44-.01-.837-.083-1.19a2.6 2.6 0 0 0-.354-.902 1.642 1.642 0 0 0-.62-.57 1.868 1.868 0 0 0-.876-.195 2.01 2.01 0 0 0-.68.11c-.206.073-.39.176-.55.309-.161.132-.301.288-.42.467a2.971 2.971 0 0 0-.297.588c-.08.213-.142.436-.183.669-.041.233-.065.47-.072.714h4.135zm4.867 11.333V12.715h2.024l.2 1.493c.246-.304.494-.568.743-.792.249-.224.51-.41.784-.561.274-.15.566-.263.876-.338.31-.076.645-.113 1.007-.113.469 0 .9.063 1.292.19.392.128.74.311 1.044.551.305.24.569.526.792.86.224.332.409.704.554 1.114.145.41.252.851.322 1.324.07.473.105.968.105 1.488 0 .583-.046 1.141-.137 1.673a7.32 7.32 0 0 1-.417 1.493 5.475 5.475 0 0 1-.706 1.262c-.284.378-.62.703-1.007.975-.387.272-.827.48-1.321.626a5.742 5.742 0 0 1-1.622.217 9.504 9.504 0 0 1-1.461-.113 7.198 7.198 0 0 1-.435-.085v4.511h-2.637zm2.637-6.8a3.247 3.247 0 0 0 .822.312c.15.036.31.063.478.08.168.018.343.027.526.027.412 0 .774-.086 1.088-.257.313-.172.575-.425.786-.758.212-.333.37-.743.476-1.23a7.926 7.926 0 0 0 .158-1.67c0-.344-.013-.669-.04-.975a7.116 7.116 0 0 0-.126-.862 3.786 3.786 0 0 0-.231-.733 2.11 2.11 0 0 0-.357-.567 1.47 1.47 0 0 0-.503-.365 1.597 1.597 0 0 0-.655-.129c-.143 0-.28.013-.408.038a1.874 1.874 0 0 0-.381.118 2.287 2.287 0 0 0-.38.21c-.126.085-.256.19-.389.313a5.67 5.67 0 0 0-.41.43c-.142.163-.293.35-.454.561v5.457zm16.37 1.913a5.811 5.811 0 0 1-.722.292 6.937 6.937 0 0 1-1.485.312c-.25.023-.505.035-.762.035-.792 0-1.485-.131-2.082-.392a3.815 3.815 0 0 1-1.482-1.134c-.392-.494-.685-1.09-.878-1.788-.194-.699-.29-1.486-.29-2.364 0-.974.119-1.84.357-2.602.238-.76.58-1.4 1.026-1.92.446-.52.977-.91 1.595-1.174.618-.263 1.304-.394 2.06-.394.225 0 .45.01.674.03a5.968 5.968 0 0 1 1.316.268c.213.07.416.153.61.25l-.554 2.003a6.423 6.423 0 0 0-.44-.175 5.268 5.268 0 0 0-.451-.137 4.504 4.504 0 0 0-.473-.094 3.377 3.377 0 0 0-.483-.035c-.423 0-.79.087-1.104.261a2.12 2.12 0 0 0-.776.752c-.204.328-.357.72-.457 1.179-.1.458-.15.974-.15 1.547 0 .62.05 1.16.153 1.625.102.463.257.85.464 1.16a2 2 0 0 0 .787.698c.317.156.692.234 1.125.234.183 0 .36-.009.53-.025a4.048 4.048 0 0 0 .974-.214c.158-.056.317-.121.478-.197l.44 1.999zm8.734.397v-4.904l.086-2.358-1.096 1.848L124.371 24h-2.267V12.715h2.638v4.904l-.086 2.331 1.1-1.847 3.589-5.388h2.261V24h-2.616zm6.929 0v-9.11h-2.75v-2.175h8.159v2.176h-2.772V24h-2.637zm15.265-.328c-.305.093-.615.178-.932.253a13.262 13.262 0 0 1-2.02.317c-.353.028-.71.043-1.071.043-.86 0-1.608-.12-2.245-.358a3.86 3.86 0 0 1-1.588-1.08c-.42-.48-.735-1.087-.942-1.817-.208-.73-.312-1.588-.312-2.573 0-.935.11-1.776.328-2.524.218-.749.54-1.386.967-1.912a4.145 4.145 0 0 1 1.584-1.204c.63-.275 1.35-.413 2.16-.413.511 0 .977.054 1.396.16.419.108.792.265 1.12.47.327.207.61.46.846.76.236.302.431.645.585 1.03.154.384.269.81.344 1.278a9.566 9.566 0 0 1 .11 1.724 314.229 314.229 0 0 0-.016.773l-.003.32h-6.714c0 .35.022.674.065.97.043.295.11.563.201.805.091.242.21.456.355.642s.32.343.526.47c.206.127.444.224.714.29.27.066.574.1.91.1a11.96 11.96 0 0 0 1.736-.127c.275-.041.547-.091.813-.15.267-.06.54-.128.82-.207l.263 1.96zm-2.267-6.515c.018-.44-.01-.837-.083-1.19a2.6 2.6 0 0 0-.355-.902 1.642 1.642 0 0 0-.62-.57 1.868 1.868 0 0 0-.876-.195 2.01 2.01 0 0 0-.679.11c-.206.073-.39.176-.55.309-.162.132-.301.288-.42.467a2.971 2.971 0 0 0-.298.588c-.08.213-.141.436-.182.669-.041.233-.066.47-.073.714h4.136zm6.43 6.843v-9.11h-2.75v-2.175h8.158v2.176h-2.772V24h-2.637z"/>
        <path fill="#9198A0" d="M172.584 28.565V12.452c0-.533.043-1.031.127-1.493.084-.462.21-.88.376-1.257.166-.376.372-.71.617-1.004a3.51 3.51 0 0 1 .849-.739c.32-.199.68-.349 1.08-.45.399-.103.835-.154 1.307-.154.677 0 1.26.094 1.746.282a3.2 3.2 0 0 1 1.206.79c.317.338.55.744.698 1.219.149.474.223.998.223 1.57 0 .43-.044.841-.132 1.233a4.58 4.58 0 0 1-.381 1.08 3.6 3.6 0 0 1-.607.865c-.238.249-.51.445-.814.588.28.072.542.167.787.287.246.12.471.266.677.438.206.172.389.369.548.59.16.223.295.47.408.745.113.274.198.572.255.894.057.322.086.671.086 1.047 0 .77-.11 1.475-.33 2.114a4.582 4.582 0 0 1-.964 1.643c-.423.457-.941.81-1.555 1.061-.614.25-1.312.376-2.092.376a4.995 4.995 0 0 1-1.746-.298 3.781 3.781 0 0 1-.456-.201l.01 4.887h-1.923zm3.379-12.423v-1.558h.349c.28 0 .536-.037.77-.112.235-.076.447-.183.637-.323s.357-.307.502-.502a3.09 3.09 0 0 0 .366-.642c.098-.232.172-.482.22-.749.048-.267.072-.541.072-.824 0-.38-.037-.724-.112-1.032a2.11 2.11 0 0 0-.363-.79 1.635 1.635 0 0 0-.647-.504c-.265-.118-.59-.177-.972-.177a2.41 2.41 0 0 0-.717.1 1.79 1.79 0 0 0-.572.294c-.169.131-.315.29-.44.479a2.688 2.688 0 0 0-.31.644c-.08.242-.14.51-.18.806-.039.295-.059.613-.059.953v9.77c.187.108.366.2.54.28.174.078.347.144.521.195.174.052.352.09.535.116.182.025.376.038.58.038.304-.004.588-.043.85-.116a2.7 2.7 0 0 0 .726-.32c.22-.14.415-.31.585-.512.17-.203.315-.434.433-.693.118-.26.208-.546.268-.857.061-.312.092-.646.092-1.004 0-.466-.066-.881-.196-1.247a2.375 2.375 0 0 0-.594-.929 2.619 2.619 0 0 0-.999-.582c-.4-.135-.866-.202-1.396-.202h-.49zm16.076 7.509c-.273.09-.557.172-.854.247-.298.075-.606.139-.927.19-.32.053-.65.094-.988.124-.339.03-.687.046-1.045.046-.823 0-1.538-.122-2.143-.365a3.697 3.697 0 0 1-1.507-1.096c-.399-.487-.696-1.092-.891-1.816-.195-.723-.293-1.568-.293-2.535 0-.902.104-1.718.312-2.446.207-.729.514-1.35.92-1.864.407-.514.908-.91 1.505-1.187.596-.278 1.284-.416 2.065-.416.483 0 .922.055 1.316.166.394.111.745.27 1.053.478.307.208.573.46.797.758.224.297.408.632.553 1.004.145.372.254.778.325 1.217a8.685 8.685 0 0 1 .092 1.906l-.011.31a8.45 8.45 0 0 0-.006.29H185.4c0 .414.022.803.067 1.165.045.361.117.692.218.99.1.3.23.565.392.798.16.233.357.429.588.588.23.16.501.28.81.363.31.082.666.123 1.067.123a9.694 9.694 0 0 0 2.495-.312c.252-.064.506-.133.76-.209l.242 1.483zm-1.633-6.37a5.442 5.442 0 0 0-.118-1.367 2.969 2.969 0 0 0-.435-1.037 2.024 2.024 0 0 0-.742-.658 2.21 2.21 0 0 0-1.03-.23 2.317 2.317 0 0 0-1.504.505 2.502 2.502 0 0 0-.511.552 3.538 3.538 0 0 0-.36.683c-.097.243-.17.497-.22.762-.05.265-.079.528-.086.79h5.006zm9.313 6.703a3.844 3.844 0 0 1-.354.078 6.561 6.561 0 0 1-.42.059c-.146.016-.297.03-.453.04a6.75 6.75 0 0 1-.465.016c-.268 0-.52-.02-.754-.059a2.526 2.526 0 0 1-.648-.196 1.98 1.98 0 0 1-.529-.357 1.94 1.94 0 0 1-.397-.545 2.957 2.957 0 0 1-.25-.763 5.236 5.236 0 0 1-.086-1.002v-6.971h-1.557V12.79h1.541l.451-3.26h1.483v3.26h2.438v1.493h-2.438v6.488c0 .272.014.506.043.7.028.196.07.36.126.495a.94.94 0 0 0 .212.325.9.9 0 0 0 .304.19c.116.045.247.076.392.092.145.016.305.024.48.024h.881v1.386zm8.46.016l-.15-1.22a7.193 7.193 0 0 1-.688.608 4.122 4.122 0 0 1-1.598.768c-.3.071-.62.107-.964.107-.523 0-.994-.072-1.413-.217a2.952 2.952 0 0 1-1.071-.634 2.75 2.75 0 0 1-.68-1.023 3.814 3.814 0 0 1-.236-1.391c0-.606.115-1.128.346-1.569.231-.44.555-.805.973-1.093.417-.288.917-.502 1.5-.642.584-.14 1.23-.21 1.94-.21h1.633v-.88c0-.43-.039-.804-.116-1.123a1.9 1.9 0 0 0-.387-.797 1.616 1.616 0 0 0-.717-.476c-.297-.103-.666-.155-1.106-.155-.24 0-.484.015-.73.045-.248.03-.497.075-.747.132a8.794 8.794 0 0 0-1.477.478l-.37-1.46c.26-.108.538-.206.832-.294a10.281 10.281 0 0 1 1.845-.37c.317-.034.63-.051.942-.051a5.9 5.9 0 0 1 1.31.131c.384.088.72.212 1.01.374.29.16.538.354.742.58.204.225.37.474.5.746.128.272.221.566.279.881.057.315.086.643.086.983V24h-1.488zm-.408-5.15h-1.725c-.45 0-.846.044-1.184.133-.338.09-.619.222-.84.398-.223.175-.389.39-.5.644a2.155 2.155 0 0 0-.167.87c0 .287.038.546.113.777.075.23.19.428.341.59.153.163.34.29.564.38.224.089.486.133.787.133.262 0 .508-.035.739-.107a3.09 3.09 0 0 0 .663-.295c.211-.126.416-.274.615-.446s.397-.36.594-.564v-2.514z"/>
        <path fill="#FF6900" d="M32 1.774C32 .797 31.203 0 30.229 0H1.78C.8 0 0 .797 0 1.774v28.452C0 31.208.8 32 1.78 32H30.23c.974 0 1.771-.792 1.771-1.774V1.774z"/>
        <path fill="#FFF" d="M16 28c6.217 0 9-4.754 9-9.467 0-3.22-1.141-6.927-3.047-9.92C20.1 5.719 17.873 4 16 4c-1.878 0-4.105 1.72-5.942 4.613C8.142 11.606 7 15.313 7 18.533 7 23.246 9.78 28 16 28"/>
    </g>
</svg>
